<mxfile host="Electron" agent="Mozilla/5.0 (Windows NT 10.0; Win64; x64) AppleWebKit/537.36 (KHTML, like Gecko) draw.io/24.5.3 Chrome/124.0.6367.207 Electron/30.0.6 Safari/537.36" modified="2024-08-01T19:17:36.796Z" etag="H_IV8yvF4nmjHNwprZ_J" version="24.5.3" type="device">
  <diagram name="Page-1" id="Pmwrq7foCxY5vmRItFRr">
    <mxGraphModel dx="864" dy="508" grid="1" gridSize="10" guides="1" tooltips="1" connect="1" arrows="1" fold="1" page="1" pageScale="1" pageWidth="827" pageHeight="1169" math="0" shadow="0">
      <root>
        <mxCell id="0" />
        <mxCell id="1" parent="0" />
        <mxCell id="n997ejpf3Lc6PY2f-RiY-1" value="&lt;font style=&quot;font-size: 15px;&quot;&gt;&lt;b&gt;End user&lt;/b&gt;&lt;/font&gt;" style="shape=umlActor;verticalLabelPosition=bottom;verticalAlign=top;html=1;outlineConnect=0;" vertex="1" parent="1">
          <mxGeometry x="130" y="310" width="70" height="130" as="geometry" />
        </mxCell>
        <mxCell id="n997ejpf3Lc6PY2f-RiY-6" value="&lt;b&gt;&lt;font style=&quot;font-size: 13px;&quot;&gt;Purchase motor vehicle&lt;/font&gt;&lt;/b&gt;" style="rounded=1;whiteSpace=wrap;html=1;fillColor=#d5e8d4;strokeColor=#82b366;" vertex="1" parent="1">
          <mxGeometry x="295" y="300" width="155" height="60" as="geometry" />
        </mxCell>
        <mxCell id="n997ejpf3Lc6PY2f-RiY-8" value="&lt;font style=&quot;font-size: 14px;&quot;&gt;&lt;b&gt;View motor vehicle&lt;/b&gt;&lt;/font&gt;&amp;nbsp;" style="rounded=1;whiteSpace=wrap;html=1;fillColor=#d5e8d4;strokeColor=#82b366;" vertex="1" parent="1">
          <mxGeometry x="290" y="400" width="160" height="60" as="geometry" />
        </mxCell>
        <mxCell id="n997ejpf3Lc6PY2f-RiY-9" value="" style="endArrow=classic;html=1;rounded=0;entryX=0;entryY=0.5;entryDx=0;entryDy=0;exitX=0.5;exitY=0.5;exitDx=0;exitDy=0;exitPerimeter=0;" edge="1" parent="1" source="n997ejpf3Lc6PY2f-RiY-1" target="n997ejpf3Lc6PY2f-RiY-8">
          <mxGeometry width="50" height="50" relative="1" as="geometry">
            <mxPoint x="210" y="400" as="sourcePoint" />
            <mxPoint x="260" y="350" as="targetPoint" />
          </mxGeometry>
        </mxCell>
        <mxCell id="n997ejpf3Lc6PY2f-RiY-10" value="" style="endArrow=classic;html=1;rounded=0;entryX=0;entryY=0.75;entryDx=0;entryDy=0;" edge="1" parent="1" target="n997ejpf3Lc6PY2f-RiY-6">
          <mxGeometry width="50" height="50" relative="1" as="geometry">
            <mxPoint x="165" y="375" as="sourcePoint" />
            <mxPoint x="290" y="350" as="targetPoint" />
          </mxGeometry>
        </mxCell>
        <mxCell id="n997ejpf3Lc6PY2f-RiY-12" value="&lt;span style=&quot;font-size: 15px;&quot;&gt;&lt;b&gt;Admin&lt;/b&gt;&lt;/span&gt;" style="shape=umlActor;verticalLabelPosition=bottom;verticalAlign=top;html=1;outlineConnect=0;" vertex="1" parent="1">
          <mxGeometry x="140" y="570" width="70" height="130" as="geometry" />
        </mxCell>
        <mxCell id="n997ejpf3Lc6PY2f-RiY-13" value="&lt;b&gt;&lt;font style=&quot;font-size: 13px;&quot;&gt;Manage motor vehicle&amp;nbsp;&lt;/font&gt;&lt;/b&gt;" style="rounded=1;whiteSpace=wrap;html=1;fillColor=#f8cecc;strokeColor=#b85450;" vertex="1" parent="1">
          <mxGeometry x="305" y="560" width="155" height="60" as="geometry" />
        </mxCell>
        <mxCell id="n997ejpf3Lc6PY2f-RiY-14" value="&lt;span style=&quot;font-size: 14px;&quot;&gt;&lt;b&gt;Manage user data&amp;nbsp;&lt;/b&gt;&lt;/span&gt;" style="rounded=1;whiteSpace=wrap;html=1;fillColor=#f8cecc;strokeColor=#b85450;" vertex="1" parent="1">
          <mxGeometry x="300" y="660" width="160" height="60" as="geometry" />
        </mxCell>
        <mxCell id="n997ejpf3Lc6PY2f-RiY-15" value="" style="endArrow=classic;html=1;rounded=0;entryX=0;entryY=0.5;entryDx=0;entryDy=0;exitX=0.5;exitY=0.5;exitDx=0;exitDy=0;exitPerimeter=0;" edge="1" parent="1" source="n997ejpf3Lc6PY2f-RiY-12" target="n997ejpf3Lc6PY2f-RiY-14">
          <mxGeometry width="50" height="50" relative="1" as="geometry">
            <mxPoint x="220" y="660" as="sourcePoint" />
            <mxPoint x="270" y="610" as="targetPoint" />
          </mxGeometry>
        </mxCell>
        <mxCell id="n997ejpf3Lc6PY2f-RiY-16" value="" style="endArrow=classic;html=1;rounded=0;entryX=0;entryY=0.75;entryDx=0;entryDy=0;" edge="1" parent="1" target="n997ejpf3Lc6PY2f-RiY-13">
          <mxGeometry width="50" height="50" relative="1" as="geometry">
            <mxPoint x="175" y="635" as="sourcePoint" />
            <mxPoint x="300" y="610" as="targetPoint" />
          </mxGeometry>
        </mxCell>
        <mxCell id="n997ejpf3Lc6PY2f-RiY-17" value="&lt;font style=&quot;font-size: 15px;&quot;&gt;User&amp;nbsp;Service&lt;/font&gt;" style="swimlane;whiteSpace=wrap;html=1;fillColor=#fff2cc;strokeColor=#d6b656;" vertex="1" parent="1">
          <mxGeometry x="30" y="865" width="200" height="190" as="geometry" />
        </mxCell>
        <mxCell id="n997ejpf3Lc6PY2f-RiY-21" value="&lt;font style=&quot;font-size: 14px;&quot;&gt;&lt;b&gt;POST / Users&lt;/b&gt;&lt;/font&gt;&lt;div&gt;&lt;span style=&quot;font-size: 14px;&quot;&gt;&lt;b&gt;&lt;br&gt;&lt;/b&gt;&lt;/span&gt;&lt;div&gt;&lt;font style=&quot;font-size: 14px;&quot;&gt;&lt;b style=&quot;font-size: 12px;&quot;&gt;&lt;font style=&quot;font-size: 14px;&quot;&gt;GET /users/{id}&lt;/font&gt;&lt;/b&gt;&lt;b&gt;&lt;br&gt;&lt;/b&gt;&lt;/font&gt;&lt;/div&gt;&lt;div&gt;&lt;font style=&quot;font-size: 14px;&quot;&gt;&lt;b style=&quot;font-size: 12px;&quot;&gt;&lt;font style=&quot;font-size: 14px;&quot;&gt;&lt;br&gt;&lt;/font&gt;&lt;/b&gt;&lt;/font&gt;&lt;/div&gt;&lt;div&gt;&lt;font style=&quot;font-size: 14px;&quot;&gt;&lt;b&gt;PUT /users/{id}&lt;/b&gt;&lt;b style=&quot;font-size: 12px;&quot;&gt;&lt;font style=&quot;font-size: 14px;&quot;&gt;&lt;br&gt;&lt;/font&gt;&lt;/b&gt;&lt;/font&gt;&lt;/div&gt;&lt;div&gt;&lt;font style=&quot;font-size: 14px;&quot;&gt;&lt;b&gt;&lt;br&gt;&lt;/b&gt;&lt;/font&gt;&lt;/div&gt;&lt;div&gt;&lt;font style=&quot;font-size: 14px;&quot;&gt;&lt;b&gt;DELETE /users/{id}&lt;/b&gt;&lt;b&gt;&lt;br&gt;&lt;/b&gt;&lt;/font&gt;&lt;/div&gt;&lt;/div&gt;" style="text;html=1;align=center;verticalAlign=middle;resizable=0;points=[];autosize=1;strokeColor=none;fillColor=none;" vertex="1" parent="n997ejpf3Lc6PY2f-RiY-17">
          <mxGeometry x="20" y="35" width="150" height="130" as="geometry" />
        </mxCell>
        <mxCell id="n997ejpf3Lc6PY2f-RiY-18" value="&lt;font style=&quot;font-size: 15px;&quot;&gt;Vehicle&amp;nbsp;Service&lt;/font&gt;" style="swimlane;whiteSpace=wrap;html=1;startSize=23;fillColor=#fff2cc;strokeColor=#d6b656;" vertex="1" parent="1">
          <mxGeometry x="250" y="865" width="200" height="200" as="geometry" />
        </mxCell>
        <mxCell id="n997ejpf3Lc6PY2f-RiY-26" value="&lt;div style=&quot;font-size: 14px;&quot;&gt;&lt;font style=&quot;font-size: 14px;&quot;&gt;&lt;b&gt;POST /vehicles&lt;br&gt;&lt;/b&gt;&lt;/font&gt;&lt;/div&gt;&lt;div style=&quot;font-size: 14px;&quot;&gt;&lt;font style=&quot;font-size: 14px;&quot;&gt;&lt;b&gt;&lt;br&gt;&lt;/b&gt;&lt;/font&gt;&lt;/div&gt;&lt;div style=&quot;font-size: 14px;&quot;&gt;&lt;font style=&quot;font-size: 14px;&quot;&gt;&lt;b&gt;GET /vehicles&lt;br&gt;&lt;/b&gt;&lt;/font&gt;&lt;/div&gt;&lt;div style=&quot;font-size: 14px;&quot;&gt;&lt;font style=&quot;font-size: 14px;&quot;&gt;&lt;b&gt;&lt;br&gt;&lt;/b&gt;&lt;/font&gt;&lt;/div&gt;&lt;div style=&quot;font-size: 14px;&quot;&gt;&lt;font style=&quot;font-size: 14px;&quot;&gt;&lt;b&gt;GET /vehicles/{id}&lt;br&gt;&lt;/b&gt;&lt;/font&gt;&lt;/div&gt;&lt;div style=&quot;font-size: 14px;&quot;&gt;&lt;font style=&quot;font-size: 14px;&quot;&gt;&lt;b&gt;&lt;br&gt;&lt;/b&gt;&lt;/font&gt;&lt;/div&gt;&lt;div style=&quot;font-size: 14px;&quot;&gt;&lt;font style=&quot;font-size: 14px;&quot;&gt;&lt;b&gt;PUT /vehicles/{id}&lt;br&gt;&lt;/b&gt;&lt;/font&gt;&lt;/div&gt;&lt;div style=&quot;font-size: 14px;&quot;&gt;&lt;font style=&quot;font-size: 14px;&quot;&gt;&lt;b&gt;&lt;br&gt;&lt;/b&gt;&lt;/font&gt;&lt;/div&gt;&lt;font style=&quot;font-size: 14px;&quot;&gt;&lt;b&gt;DELETE /vehicles/{id}&lt;/b&gt;&lt;/font&gt;&lt;div style=&quot;font-size: 14px;&quot;&gt;&lt;br&gt;&lt;/div&gt;" style="text;html=1;align=center;verticalAlign=middle;resizable=0;points=[];autosize=1;strokeColor=none;fillColor=none;" vertex="1" parent="n997ejpf3Lc6PY2f-RiY-18">
          <mxGeometry x="15" y="25" width="170" height="180" as="geometry" />
        </mxCell>
        <mxCell id="n997ejpf3Lc6PY2f-RiY-29" value="" style="endArrow=classic;startArrow=classic;html=1;rounded=0;" edge="1" parent="n997ejpf3Lc6PY2f-RiY-18">
          <mxGeometry width="50" height="50" relative="1" as="geometry">
            <mxPoint x="-20" y="85" as="sourcePoint" />
            <mxPoint y="85" as="targetPoint" />
          </mxGeometry>
        </mxCell>
        <mxCell id="n997ejpf3Lc6PY2f-RiY-19" value="&lt;font style=&quot;font-size: 15px;&quot;&gt;Admin&amp;nbsp;Service&lt;/font&gt;" style="swimlane;whiteSpace=wrap;html=1;fillColor=#fff2cc;strokeColor=#d6b656;" vertex="1" parent="1">
          <mxGeometry x="700" y="857.5" width="200" height="235" as="geometry" />
        </mxCell>
        <mxCell id="n997ejpf3Lc6PY2f-RiY-28" value="&lt;font style=&quot;font-size: 14px;&quot;&gt;&lt;b&gt;GET /admin/users&lt;/b&gt;&lt;/font&gt;&lt;div&gt;&lt;span style=&quot;font-size: 14px;&quot;&gt;&lt;b&gt;&lt;br&gt;&lt;/b&gt;&lt;/span&gt;&lt;div style=&quot;font-size: 14px;&quot;&gt;&lt;font style=&quot;font-size: 14px;&quot;&gt;&lt;b&gt;PUT /admin/users&lt;br&gt;&lt;/b&gt;&lt;/font&gt;&lt;/div&gt;&lt;div style=&quot;font-size: 14px;&quot;&gt;&lt;font style=&quot;font-size: 14px;&quot;&gt;&lt;b&gt;&lt;br&gt;&lt;/b&gt;&lt;/font&gt;&lt;/div&gt;&lt;div style=&quot;font-size: 14px;&quot;&gt;&lt;font style=&quot;font-size: 14px;&quot;&gt;&lt;b&gt;DELETE /admin/users&lt;br&gt;&lt;/b&gt;&lt;/font&gt;&lt;/div&gt;&lt;div style=&quot;font-size: 14px;&quot;&gt;&lt;font style=&quot;font-size: 14px;&quot;&gt;&lt;b&gt;&lt;br&gt;&lt;/b&gt;&lt;/font&gt;&lt;/div&gt;&lt;div style=&quot;font-size: 14px;&quot;&gt;&lt;font style=&quot;font-size: 14px;&quot;&gt;&lt;b&gt;GET /admin/vehicles&lt;br&gt;&lt;/b&gt;&lt;/font&gt;&lt;/div&gt;&lt;div style=&quot;font-size: 14px;&quot;&gt;&lt;font style=&quot;font-size: 14px;&quot;&gt;&lt;b&gt;&lt;br&gt;&lt;/b&gt;&lt;/font&gt;&lt;/div&gt;&lt;div style=&quot;font-size: 14px;&quot;&gt;&lt;font style=&quot;font-size: 14px;&quot;&gt;&lt;b&gt;PUT /admin/vehicles&lt;br&gt;&lt;/b&gt;&lt;/font&gt;&lt;/div&gt;&lt;div style=&quot;font-size: 14px;&quot;&gt;&lt;font style=&quot;font-size: 14px;&quot;&gt;&lt;b&gt;&lt;br&gt;&lt;/b&gt;&lt;/font&gt;&lt;/div&gt;&lt;div style=&quot;font-size: 14px;&quot;&gt;&lt;font style=&quot;font-size: 14px;&quot;&gt;&lt;b&gt;&amp;nbsp;DELETE /admin/vehicles&lt;/b&gt;&lt;/font&gt;&lt;br&gt;&lt;/div&gt;&lt;/div&gt;" style="text;html=1;align=center;verticalAlign=middle;resizable=0;points=[];autosize=1;strokeColor=none;fillColor=none;" vertex="1" parent="n997ejpf3Lc6PY2f-RiY-19">
          <mxGeometry y="22.5" width="190" height="200" as="geometry" />
        </mxCell>
        <mxCell id="n997ejpf3Lc6PY2f-RiY-20" value="&lt;font style=&quot;font-size: 15px;&quot;&gt;Purchase&amp;nbsp;Service&lt;/font&gt;" style="swimlane;whiteSpace=wrap;html=1;fillColor=#fff2cc;strokeColor=#d6b656;" vertex="1" parent="1">
          <mxGeometry x="480" y="865" width="200" height="200" as="geometry" />
        </mxCell>
        <mxCell id="n997ejpf3Lc6PY2f-RiY-27" value="&lt;div style=&quot;font-size: 14px;&quot;&gt;&lt;font style=&quot;font-size: 14px;&quot;&gt;&lt;b&gt;POST /purchases&lt;/b&gt;&lt;/font&gt;&lt;/div&gt;&lt;div style=&quot;font-size: 14px;&quot;&gt;&lt;font style=&quot;font-size: 14px;&quot;&gt;&lt;b&gt;&lt;br&gt;&lt;/b&gt;&lt;/font&gt;&lt;/div&gt;&lt;div style=&quot;font-size: 14px;&quot;&gt;&lt;font style=&quot;font-size: 14px;&quot;&gt;&lt;b&gt;GET /purchases&amp;nbsp;&lt;br&gt;&lt;/b&gt;&lt;/font&gt;&lt;/div&gt;&lt;div style=&quot;font-size: 14px;&quot;&gt;&lt;font style=&quot;font-size: 14px;&quot;&gt;&lt;b&gt;&lt;br&gt;&lt;/b&gt;&lt;/font&gt;&lt;/div&gt;&lt;div style=&quot;font-size: 14px;&quot;&gt;&lt;font style=&quot;font-size: 14px;&quot;&gt;&lt;b&gt;GET /purchases/{id}&lt;br&gt;&lt;/b&gt;&lt;/font&gt;&lt;/div&gt;&lt;div style=&quot;font-size: 14px;&quot;&gt;&lt;font style=&quot;font-size: 14px;&quot;&gt;&lt;b&gt;&lt;br&gt;&lt;/b&gt;&lt;/font&gt;&lt;/div&gt;&lt;div style=&quot;font-size: 14px;&quot;&gt;&lt;font style=&quot;font-size: 14px;&quot;&gt;&lt;b&gt;&amp;nbsp;PUT /purchases/{id}&lt;br&gt;&lt;/b&gt;&lt;/font&gt;&lt;/div&gt;&lt;div style=&quot;font-size: 14px;&quot;&gt;&lt;font style=&quot;font-size: 14px;&quot;&gt;&lt;b&gt;&lt;br&gt;&lt;/b&gt;&lt;/font&gt;&lt;/div&gt;&lt;div style=&quot;font-size: 14px;&quot;&gt;&lt;font style=&quot;font-size: 14px;&quot;&gt;&lt;b&gt;DELETE /purchases/{id}&lt;/b&gt;&lt;/font&gt;&lt;br&gt;&lt;/div&gt;" style="text;html=1;align=center;verticalAlign=middle;resizable=0;points=[];autosize=1;strokeColor=none;fillColor=none;" vertex="1" parent="n997ejpf3Lc6PY2f-RiY-20">
          <mxGeometry x="10" y="30" width="180" height="160" as="geometry" />
        </mxCell>
        <mxCell id="n997ejpf3Lc6PY2f-RiY-30" value="" style="endArrow=classic;startArrow=classic;html=1;rounded=0;entryX=0;entryY=0.473;entryDx=0;entryDy=0;entryPerimeter=0;" edge="1" parent="1" target="n997ejpf3Lc6PY2f-RiY-28">
          <mxGeometry width="50" height="50" relative="1" as="geometry">
            <mxPoint x="680" y="975" as="sourcePoint" />
            <mxPoint x="690" y="974.5" as="targetPoint" />
          </mxGeometry>
        </mxCell>
        <mxCell id="n997ejpf3Lc6PY2f-RiY-32" value="" style="endArrow=classic;startArrow=classic;html=1;rounded=0;" edge="1" parent="1">
          <mxGeometry width="50" height="50" relative="1" as="geometry">
            <mxPoint x="450" y="974.5" as="sourcePoint" />
            <mxPoint x="480" y="975" as="targetPoint" />
          </mxGeometry>
        </mxCell>
      </root>
    </mxGraphModel>
  </diagram>
</mxfile>
